<svg width="42" height="36" viewBox="0 0 42 36" fill="none" xmlns="http://www.w3.org/2000/svg">
<path d="M5.79062 4.70153C5.93316 3.8988 6.07281 3.12164 6.21308 2.34581C6.45615 1.00146 7.62749 0.0239773 8.99363 0.0220887C11.1764 0.0190711 13.3366 0.0190844 15.4958 0.0624677C15.7458 0.0674913 16.1057 0.567915 16.2115 0.902417C17.8638 6.12841 19.4826 11.365 21.1101 16.5989C21.1743 16.8055 21.4563 16.8474 21.5959 16.6821C21.6962 16.5633 21.7864 16.4519 21.8658 16.3331C25.3069 11.1842 28.7518 6.03777 32.1697 0.873473C32.5747 0.26154 32.9892 -0.0163511 33.7675 0.000741899C35.4282 0.0372158 37.0897 0.0381011 38.7865 0.0331256C40.5443 0.027971 41.876 1.61144 41.5705 3.34254C39.7957 13.3976 38.0314 23.3937 36.2613 33.4227C36.0228 34.7736 34.849 35.7584 33.4773 35.7584C32.3916 35.7584 31.3067 35.7584 30.218 35.7584C28.4616 35.7584 27.1303 34.1735 27.4334 32.4434C28.3481 27.223 29.2589 22.025 30.1697 16.8272C30.1898 16.7121 30.1183 16.6007 30.0052 16.5712C29.9109 16.5466 29.8116 16.5856 29.7592 16.6676C27.7501 19.8112 25.6754 22.9159 23.774 26.1234C23.0337 27.3721 22.2121 27.841 20.7985 27.7199C19.9994 27.6514 19.1946 27.6487 18.3728 27.6607C17.1072 27.6791 15.9959 26.8503 15.6522 25.6322C14.7683 22.4993 13.8883 19.3804 13.0084 16.2616C12.9932 16.2077 12.9474 16.1679 12.8919 16.1603C12.817 16.1502 12.7475 16.2008 12.7343 16.2752C11.7195 21.9768 10.7047 27.6787 9.68215 33.4244C9.44206 34.7734 8.26914 35.7561 6.89892 35.7561C5.83648 35.7561 4.76748 35.7561 3.68427 35.7561C1.92635 35.7561 0.594651 34.1687 0.900269 32.4376C2.52818 23.2164 4.15483 13.9993 5.79062 4.70153Z" fill="#145251"/>
</svg>
