<svg width="41" height="36" viewBox="0 0 41 36" fill="none" xmlns="http://www.w3.org/2000/svg">
<path d="M26.6923 33.1585C27.6785 27.5462 28.6514 22.0336 29.6241 16.5216C29.6362 16.453 29.5992 16.385 29.535 16.3579C29.471 16.331 29.397 16.3516 29.3556 16.4072C29.1892 16.6301 29.0161 16.8486 28.8671 17.0826C26.7838 20.3538 24.7266 23.6422 22.5975 26.8832C22.3377 27.2786 21.7101 27.6205 21.2322 27.6498C19.6682 27.7459 18.093 27.6425 16.5257 27.7053C15.7826 27.735 15.5344 27.4747 15.3474 26.7761C14.4673 23.4878 13.515 20.2188 12.5861 16.9436C12.4983 16.6339 12.0467 16.6653 11.9903 16.9823C10.9886 22.615 10.0246 28.0357 9.06382 33.4381C8.82388 34.7872 7.65081 35.7701 6.28045 35.7701C5.20445 35.7701 4.13494 35.7701 3.06459 35.7701C1.30666 35.7701 -0.0250021 34.1827 0.28065 32.4515C2.05229 22.4173 3.81795 12.417 5.58699 2.39743C5.82548 1.04664 6.99924 0.0619547 8.37092 0.0619547C9.99986 0.0619547 11.6264 0.0619547 13.2791 0.0619547C14.5168 0.0619547 15.6105 0.866982 15.9784 2.0487C17.3957 6.6018 18.8241 11.1908 20.2811 15.8713C20.4415 16.3866 21.1367 16.5101 21.4365 16.0613C24.8103 11.0117 28.1974 5.97094 31.5328 0.896106C31.9819 0.212778 32.4482 -0.0125008 33.2357 0.000529988C34.8752 0.0276559 36.5151 0.028609 38.1722 0.0249919C39.9301 0.0211546 41.2618 1.60551 40.9561 3.33669C39.1778 13.4068 37.4106 23.4144 35.6405 33.4378C35.402 34.7885 34.2283 35.7732 32.8566 35.7732C31.5368 35.7732 30.2193 35.7732 28.8871 35.7732C27.5027 35.7732 26.4564 34.5227 26.6923 33.1585Z" fill="#145251"/>
</svg>
