<svg width="31" height="37" viewBox="0 0 31 37" fill="none" xmlns="http://www.w3.org/2000/svg">
<path d="M29.4697 4.38617C30.8346 6.91883 31.0069 9.54757 30.5469 12.2294C29.8061 16.5486 29.1857 20.9008 28.1771 25.1592C26.4118 32.6119 21.5763 36.413 13.9222 36.7189C11.089 36.8321 8.26776 36.7393 5.58171 35.7C2.37752 34.4601 0.514462 32.0645 0.438312 28.6605C0.381048 26.1001 0.73064 23.5105 1.11027 20.9654C1.60091 17.6761 2.10942 14.3677 2.95171 11.1571C4.78773 4.15873 9.50259 0.369809 16.7297 0.0294919C19.0554 -0.0800256 21.4342 0.123418 23.7345 0.507957C26.1158 0.906046 28.1165 2.16078 29.4697 4.38617ZM17.8011 27.5058C18.0909 27.2368 18.2863 26.8847 18.4178 26.5117C18.9063 25.1265 19.4689 23.7567 19.765 22.3314C20.4408 19.0782 20.9929 15.7955 21.4768 12.5073C21.9753 9.11948 20.0429 7.23313 16.6764 7.67388C13.8371 8.0456 12.1171 9.67859 11.4838 12.7791C10.9436 15.4237 10.4986 18.0887 10.0558 20.752C9.80568 22.2558 9.5606 23.7692 9.46511 25.2878C9.34477 27.2016 10.0689 28.3876 11.7358 28.7824C13.9072 29.2965 16.0043 29.1736 17.8011 27.5058Z" fill="#145251"/>
</svg>
