<svg width="31" height="36" viewBox="0 0 31 36" fill="none" xmlns="http://www.w3.org/2000/svg">
<path d="M4.22004 13.8425C4.91174 9.89596 5.59654 6.02242 6.29136 2.09744C6.50622 0.883682 7.56121 -0.0128072 8.79377 0.000138423C13.6978 0.0516417 18.6019 0.0937746 23.5055 0.173872C24.163 0.184613 24.8282 0.349568 25.4714 0.514631C29.2576 1.48615 31.2082 4.01903 30.8518 7.91518C30.6283 10.3589 30.1269 12.7971 29.5253 15.181C29.0421 17.096 28.0757 18.7059 26.6183 19.9823C25.6113 20.8643 25.022 22.2109 25.4192 23.4893C26.3051 26.3404 27.1934 29.1993 28.088 32.0782C28.6533 33.8977 27.2936 35.7441 25.3883 35.7441C24.0155 35.7441 22.6442 35.7441 21.2605 35.7441C20.0245 35.7441 18.9318 34.9411 18.5625 33.7616C17.5319 30.469 16.4948 27.156 15.4502 23.8189C15.1972 23.0107 14.4931 22.4605 13.6462 22.4605C12.6902 22.4605 11.8325 23.1579 11.687 24.1028C11.2151 27.1679 10.7404 30.2519 10.2634 33.35C10.0511 34.729 8.86452 35.7469 7.46931 35.7469C6.21777 35.7469 4.96974 35.7469 3.71454 35.7469C1.95563 35.7469 0.623712 34.1578 0.930968 32.426C2.02912 26.2362 3.12114 20.0758 4.22004 13.8425ZM20.8111 14.2033C20.9133 14.0088 20.9758 13.7968 21.0235 13.5824C21.1529 13.0007 21.313 12.4204 21.3393 11.8341C21.4421 9.53945 20.4423 8.0186 18.585 7.83198C17.9471 7.76788 17.304 7.75541 16.6551 7.7612C15.2557 7.7737 14.0673 8.82725 13.8597 10.2111C13.7143 11.1807 13.5697 12.1453 13.4252 13.1084C13.1689 14.8176 14.4926 16.4015 16.2208 16.3783C16.6267 16.3728 17.0311 16.36 17.4348 16.3348C18.8751 16.2451 20.0571 15.6372 20.8111 14.2033Z" fill="#145251"/>
</svg>
