<svg width="30" height="36" viewBox="0 0 30 36" fill="none" xmlns="http://www.w3.org/2000/svg">
<path d="M9.61737 23.0721C9.61687 23.8193 9.61664 24.5316 9.61653 25.2329C9.61637 26.3029 10.5735 27.4229 10.9791 26.4327C11.013 26.3499 11.0454 26.2618 11.0774 26.1696C13.9707 17.8141 16.8997 9.47089 19.7768 1.10978C20.0653 0.271299 20.4367 -0.0202926 21.3356 0.00108612C23.6857 0.0569729 26.0375 0.0356471 28.4625 0.0277038C29.1285 0.0255223 29.6411 0.682246 29.4051 1.30497C25.1754 12.462 20.9335 23.6143 16.7244 34.779C16.4354 35.5458 16.1037 35.8566 15.2322 35.8477C11.2356 35.8065 7.23855 35.8162 3.15141 35.8212C1.602 35.8231 0.341256 34.5761 0.324543 33.0267C0.216376 22.9994 0.10852 13.0008 0.000168026 2.95624C-0.0168017 1.38311 1.25378 0.0987051 2.82701 0.0987051C4.14718 0.0987051 5.46463 0.0987051 6.79127 0.0987051C8.35258 0.0987051 9.6183 1.36439 9.6183 2.9257C9.61829 9.58826 9.61819 16.285 9.61737 23.0721Z" fill="#145251"/>
</svg>
